<svg width="18" height="18" viewBox="0 0 18 18" fill="none" xmlns="http://www.w3.org/2000/svg">
<path d="M16.95 18C14.8 18 12.7043 17.525 10.663 16.575C8.621 15.625 6.81267 14.3583 5.238 12.775C3.66267 11.1917 2.396 9.379 1.438 7.337C0.479334 5.29567 0 3.2 0 1.05V0.525C0 0.341667 0.0166666 0.166667 0.05 0H5.9L6.825 5.025L3.975 7.9C4.675 9.1 5.55433 10.225 6.613 11.275C7.671 12.325 8.83333 13.2333 10.1 14L13 11.1L18 12.1V17.95C17.8333 17.9667 17.6583 17.9793 17.475 17.988C17.2917 17.996 17.1167 18 16.95 18Z" fill="white"/>
</svg>
