<svg width="12" height="7" viewBox="0 0 12 7" fill="none" xmlns="http://www.w3.org/2000/svg">
<path d="M6.00005 6.97499C5.86672 6.97499 5.73772 6.94999 5.61305 6.89999C5.48772 6.84999 5.38338 6.78332 5.30005 6.69999L0.700048 2.09999C0.516715 1.91665 0.425049 1.68332 0.425049 1.39999C0.425049 1.11665 0.516715 0.883321 0.700048 0.699987C0.883382 0.516654 1.11672 0.424988 1.40005 0.424988C1.68338 0.424988 1.91672 0.516654 2.10005 0.699987L6.00005 4.59999L9.90005 0.699987C10.0834 0.516654 10.3167 0.424988 10.6 0.424988C10.8834 0.424988 11.1167 0.516654 11.3 0.699987C11.4834 0.883321 11.575 1.11665 11.575 1.39999C11.575 1.68332 11.4834 1.91665 11.3 2.09999L6.70005 6.69999C6.60005 6.79999 6.49172 6.87065 6.37505 6.91199C6.25838 6.95399 6.13338 6.97499 6.00005 6.97499Z" fill="black"/>
</svg>
