<svg width="34" height="34" viewBox="0 0 34 34" fill="none" xmlns="http://www.w3.org/2000/svg">
<path d="M10 0.333252H24C29.3334 0.333252 33.6667 4.66659 33.6667 9.99992V23.9999C33.6667 26.5637 32.6483 29.0224 30.8354 30.8353C29.0226 32.6481 26.5638 33.6666 24 33.6666H10C4.66671 33.6666 0.333374 29.3333 0.333374 23.9999V9.99992C0.333374 7.43616 1.35182 4.9774 3.16468 3.16455C4.97753 1.3517 7.43628 0.333252 10 0.333252ZM9.66671 3.66659C8.07541 3.66659 6.54928 4.29873 5.42407 5.42394C4.29885 6.54916 3.66671 8.07529 3.66671 9.66658V24.3333C3.66671 27.6499 6.35004 30.3333 9.66671 30.3333H24.3334C25.9247 30.3333 27.4508 29.7011 28.576 28.5759C29.7012 27.4507 30.3334 25.9245 30.3334 24.3333V9.66658C30.3334 6.34992 27.65 3.66659 24.3334 3.66659H9.66671ZM25.75 6.16658C26.3026 6.16658 26.8325 6.38608 27.2232 6.77678C27.6139 7.16748 27.8334 7.69738 27.8334 8.24992C27.8334 8.80245 27.6139 9.33236 27.2232 9.72306C26.8325 10.1138 26.3026 10.3333 25.75 10.3333C25.1975 10.3333 24.6676 10.1138 24.2769 9.72306C23.8862 9.33236 23.6667 8.80245 23.6667 8.24992C23.6667 7.69738 23.8862 7.16748 24.2769 6.77678C24.6676 6.38608 25.1975 6.16658 25.75 6.16658ZM17 8.66658C19.2102 8.66658 21.3298 9.54456 22.8926 11.1074C24.4554 12.6702 25.3334 14.7898 25.3334 16.9999C25.3334 19.2101 24.4554 21.3297 22.8926 22.8925C21.3298 24.4553 19.2102 25.3333 17 25.3333C14.7899 25.3333 12.6703 24.4553 11.1075 22.8925C9.54468 21.3297 8.66671 19.2101 8.66671 16.9999C8.66671 14.7898 9.54468 12.6702 11.1075 11.1074C12.6703 9.54456 14.7899 8.66658 17 8.66658ZM17 11.9999C15.674 11.9999 14.4022 12.5267 13.4645 13.4644C12.5268 14.4021 12 15.6738 12 16.9999C12 18.326 12.5268 19.5978 13.4645 20.5355C14.4022 21.4731 15.674 21.9999 17 21.9999C18.3261 21.9999 19.5979 21.4731 20.5356 20.5355C21.4733 19.5978 22 18.326 22 16.9999C22 15.6738 21.4733 14.4021 20.5356 13.4644C19.5979 12.5267 18.3261 11.9999 17 11.9999Z" fill="white"/>
</svg>
