<svg width="27" height="24" viewBox="0 0 27 24" fill="none" xmlns="http://www.w3.org/2000/svg">
<path d="M8.125 23.25C7.33333 23.25 6.65625 22.9633 6.09375 22.39C5.53125 21.8175 5.25 21.1354 5.25 20.3438V8.75L2.96875 3.25H1.5C1.14583 3.25 0.849167 3.13 0.61 2.89C0.37 2.65083 0.25 2.35417 0.25 2C0.25 1.64583 0.37 1.34875 0.61 1.10875C0.849167 0.869583 1.14583 0.75 1.5 0.75H3.8125C4.0625 0.75 4.29167 0.822917 4.5 0.96875C4.70833 1.11458 4.86458 1.30208 4.96875 1.53125L6.71875 5.75H25.1875C25.6667 5.75 26.0312 5.94792 26.2812 6.34375C26.5313 6.73958 26.5417 7.14583 26.3125 7.5625L22.75 14.5312C23.8125 14.6979 24.7033 15.1875 25.4225 16C26.1408 16.8125 26.5 17.7708 26.5 18.875C26.5 20.0833 26.0783 21.1146 25.235 21.9688C24.3908 22.8229 23.3646 23.25 22.1562 23.25C20.9271 23.25 19.8908 22.8229 19.0475 21.9688C18.2033 21.1146 17.7812 20.0833 17.7812 18.875C17.7812 18.4583 17.8333 18.0729 17.9375 17.7188C18.0417 17.3646 18.1875 17.0208 18.375 16.6875L14.2812 16.3125L10.5312 21.9375C10.2604 22.3542 9.91125 22.6771 9.48375 22.9062C9.05708 23.1354 8.60417 23.25 8.125 23.25ZM8.15625 20.7188C8.19792 20.7188 8.29167 20.6667 8.4375 20.5625L11.4688 16.0625C10.4479 15.9583 9.64583 15.7133 9.0625 15.3275C8.47917 14.9425 8.04167 14.5417 7.75 14.125V20.375C7.75 20.4792 7.79167 20.5625 7.875 20.625C7.95833 20.6875 8.05208 20.7188 8.15625 20.7188ZM22.125 20.75C22.6667 20.75 23.1146 20.5675 23.4688 20.2025C23.8229 19.8383 24 19.3958 24 18.875C24 18.3333 23.8229 17.8854 23.4688 17.5312C23.1146 17.1771 22.6667 17 22.125 17C21.6042 17 21.1617 17.1771 20.7975 17.5312C20.4325 17.8854 20.25 18.3333 20.25 18.875C20.25 19.3958 20.4325 19.8383 20.7975 20.2025C21.1617 20.5675 21.6042 20.75 22.125 20.75Z" fill="#003E29"/>
</svg>
