<svg width="38" height="32" viewBox="0 0 38 32" fill="none" xmlns="http://www.w3.org/2000/svg">
<path d="M11.775 31.75C10.6667 31.75 9.71875 31.3487 8.93125 30.546C8.14375 29.7445 7.75 28.7896 7.75 27.6812V11.45L4.55625 3.75H2.5C2.00417 3.75 1.58883 3.582 1.254 3.246C0.918 2.91117 0.75 2.49583 0.75 2C0.75 1.50417 0.918 1.08825 1.254 0.75225C1.58883 0.417417 2.00417 0.25 2.5 0.25H5.7375C6.0875 0.25 6.40833 0.352083 6.7 0.55625C6.99167 0.760417 7.21042 1.02292 7.35625 1.34375L9.80625 7.25H35.6625C36.3333 7.25 36.8438 7.52708 37.1938 8.08125C37.5438 8.63542 37.5583 9.20417 37.2375 9.7875L32.25 19.5437C33.7375 19.7771 34.9847 20.4625 35.9915 21.6C36.9972 22.7375 37.5 24.0792 37.5 25.625C37.5 27.3167 36.9097 28.7604 35.729 29.9563C34.5472 31.1521 33.1104 31.75 31.4187 31.75C29.6979 31.75 28.2472 31.1521 27.0665 29.9563C25.8847 28.7604 25.2937 27.3167 25.2937 25.625C25.2937 25.0417 25.3667 24.5021 25.5125 24.0063C25.6583 23.5104 25.8625 23.0292 26.125 22.5625L20.3938 22.0375L15.1438 29.9125C14.7646 30.4958 14.2758 30.9479 13.6772 31.2688C13.0799 31.5896 12.4458 31.75 11.775 31.75ZM11.8187 28.2063C11.8771 28.2063 12.0083 28.1333 12.2125 27.9875L16.4563 21.6875C15.0271 21.5417 13.9042 21.1987 13.0875 20.6585C12.2708 20.1195 11.6583 19.5583 11.25 18.975V27.725C11.25 27.8708 11.3083 27.9875 11.425 28.075C11.5417 28.1625 11.6729 28.2063 11.8187 28.2063ZM31.375 28.25C32.1333 28.25 32.7604 27.9945 33.2563 27.4835C33.7521 26.9737 34 26.3542 34 25.625C34 24.8667 33.7521 24.2396 33.2563 23.7437C32.7604 23.2479 32.1333 23 31.375 23C30.6458 23 30.0263 23.2479 29.5165 23.7437C29.0055 24.2396 28.75 24.8667 28.75 25.625C28.75 26.3542 29.0055 26.9737 29.5165 27.4835C30.0263 27.9945 30.6458 28.25 31.375 28.25Z" fill="white"/>
</svg>
